<svg height="512pt" viewBox="-20 0 512 512.00058" width="512pt" xmlns="http://www.w3.org/2000/svg"><path d="m384.484375 263.660156c-15.621094-9.863281-27.132813-25.90625-30.835937-45.074218-.890626-4.613282-1.328126-9.417969-1.238282-14.425782l-40.886718-58.511718-18.101563-86.925782c-3.085937-14.824218-17.605469-24.339844-32.429687-21.25-14.824219 3.085938-24.335938 17.605469-21.25 32.429688l19.246093 92.429687c.757813 3.632813 2.242188 7.074219 4.367188 10.113281l32.828125 46.980469-93.53125 33.566407-151.410156-205.515626c-9.300782-12.621093-27.070313-15.316406-39.691407-6.019531-12.621093 9.300781-15.3125 27.070313-6.015625 39.691407l163.234375 221.566406 11.460938 31.9375-110.644531-13.214844c-19.796876-2.363281-35.855469 15.953125-30.847657 35.296875l34.679688 133.988281c3.945312 15.25 19.488281 24.277344 34.589843 20.367188 15.179688-3.929688 24.296876-19.417969 20.371094-34.59375l-24.269531-93.757813 79.328125 9.972657c12.136719 1.523437 24.460938.167968 35.972656-3.964844l106.722656-38.304688-9.902343 32.09375-73.753907 37.726563c-13.480468 6.898437-18.820312 23.414062-11.925781 36.894531 6.875 13.441406 23.375 18.839844 36.894531 11.925781l84.054688-42.996093c6.585938-3.371094 11.53125-9.257813 13.714844-16.324219l30.207031-97.890625c1.824219-5.910156 1.550781-11.96875-.402344-17.371094-.917969-5.117188-2.015625-6.65625-10.535156-30.839844zm0 0"/><path d="m472.335938 195.660156c-4.824219-24.964844-26.691407-42.316406-51.207032-42.316406-32.863281 0-57.539062 29.921875-51.320312 62.121094 4.824218 24.96875 26.691406 42.320312 51.207031 42.320312 32.855469-.003906 57.539063-29.917968 51.320313-62.125zm0 0"/><path d="m179.742188 44.140625c0 24.378906-19.761719 44.140625-44.140626 44.140625-24.378906 0-44.140624-19.761719-44.140624-44.140625s19.761718-44.140625 44.140624-44.140625c24.378907 0 44.140626 19.761719 44.140626 44.140625zm0 0"/></svg>